<?xml version="1.0" standalone="no"?>
<!DOCTYPE svg PUBLIC "-//W3C//DTD SVG 1.1//EN" "http://www.w3.org/Graphics/SVG/1.1/DTD/svg11.dtd" >
<svg xmlns="http://www.w3.org/2000/svg">
<metadata></metadata>
<defs>
<font id="corbertregular" horiz-adv-x="731" >
<font-face units-per-em="1000" ascent="800" descent="-200" />
<missing-glyph horiz-adv-x="295" />
<glyph unicode="&#xfb01;" horiz-adv-x="632" d="M390 748v-44q-94 0 -150 -49q-57 -50 -57 -155h362v-500h-58v456h-304v-456h-57v456h-92v44h92q0 129 78 192q71 59 186 56z" />
<glyph unicode="&#xfb02;" horiz-adv-x="732" d="M542 748v-538q0 -86 38 -129q38 -42 115 -42v-44q-102 -3 -155 50q-56 55 -56 165v494h-94q-94 0 -150 -49q-57 -50 -57 -155h165v-44h-165v-456h-57v456h-92v44h92q0 129 78 192q70 59 183 56h155z" />
<glyph horiz-adv-x="0" />
<glyph horiz-adv-x="333" />
<glyph unicode=" "  horiz-adv-x="295" />
<glyph unicode="&#x09;" horiz-adv-x="295" />
<glyph unicode="&#xa0;" horiz-adv-x="295" />
<glyph unicode="!" horiz-adv-x="160" d="M110 153h-60v547h60v-547zM79.5 60q14.5 0 25 -9.5t10.5 -22.5q0 -9 -5 -16.5t-13 -12t-17 -4.5q-14 0 -24.5 9.5t-10.5 23t10 23t24.5 9.5z" />
<glyph unicode="&#x22;" horiz-adv-x="294" d="M94 450h-49v256h49v-256zM249 450h-49v256h49v-256z" />
<glyph unicode="#" horiz-adv-x="636" d="M496 510h95l-10 -45h-95l-49 -230h95l-9 -45h-95l-41 -190h-52l40 190h-190l-41 -190h-52l40 190h-87l10 45h87l48 230h-86l9 45h87l40 190h53l-40 -190h190l40 190h53zM243 465l-49 -230h191l49 230h-191z" />
<glyph unicode="$" horiz-adv-x="668" d="M363 711h18q125 -3 212 -56l-34 -43q-84 52 -203 52q-60 0 -108.5 -15.5t-80.5 -48.5t-32 -79q0 -28 11.5 -49.5t27.5 -35t44.5 -24t51 -16t58.5 -12.5q9 -2 25 -5q32 -5 47.5 -8.5t43.5 -10t42.5 -11.5t37 -14.5t34.5 -19t26.5 -23t21.5 -29.5t12 -36.5t5 -44.5 q0 -37 -14 -68t-39 -52.5t-58.5 -37t-70.5 -24t-78 -10.5v-95h-55v94q-80 5 -151 29.5t-112 65.5l36 40q26 -26 67.5 -45.5t90.5 -30t99 -10.5q60 0 108.5 14.5t81 47.5t32.5 81q0 20 -3.5 36.5t-13 29.5t-18.5 23t-27 18t-31 13t-37.5 11t-39.5 8.5t-44 8.5q-23 4 -35 6 q-43 8 -72.5 15.5t-63 21.5t-53.5 32t-34 47t-14 67q0 55 33 97t84.5 64.5t116.5 29.5v96h55v-94z" />
<glyph unicode="%" horiz-adv-x="869" d="M232 -17h-59l462 734h59zM204.5 706q47.5 0 80 -14.5t49 -42.5t23.5 -60t7 -75.5t-7 -76t-24.5 -60.5t-49.5 -42.5t-78.5 -14.5t-79 14.5t-49.5 42.5t-24 60.5t-7 76t7 75.5t23.5 60t49 42.5t80 14.5zM204.5 668q-33.5 0 -56 -10t-34.5 -31t-17 -48t-5 -65 q0 -79 24.5 -117.5t88 -38.5t88 38.5t24.5 117.5q0 38 -5 65t-17 48t-34.5 31t-56 10zM664.5 380q47.5 0 80 -15t49 -42.5t23.5 -60t7 -75.5q0 -34 -4 -61.5t-15 -53t-28.5 -42t-46 -26.5t-65.5 -10q-47 0 -79 14.5t-49 42t-24.5 60.5t-7.5 76t7 75.5t24 60t49 42.5t79.5 15 zM665 342q-34 0 -56.5 -10.5t-34.5 -31t-17 -47.5t-5 -66q0 -79 24.5 -117t88 -38t88 38t24.5 117t-24 117t-88 38z" />
<glyph unicode="&#x26;" horiz-adv-x="695" d="M223 385l-70 74q-33 37 -33 100q0 36 10 62.5t28 43.5t44.5 27.5t55.5 15t66 4.5q36 0 64.5 -4t55.5 -14.5t44.5 -27.5t28 -44t10.5 -63q0 -94 -74 -130l-141 -60l244 -256q23 32 23 84q0 67 -38 101l31 23q55 -50 55 -140q0 -68 -31 -112l49 -52l5 -17h-63l-33 34 q-62 -56 -216 -56q-51 0 -92.5 5.5t-80 19.5t-64 36.5t-41 58t-15.5 83.5q0 120 100 170zM277 407l144 61q48 23 48 90q0 60 -36.5 83t-109 23t-108.5 -23t-36 -83q0 -48 21 -71zM259 346l-81 -34q-75 -36 -75 -131q0 -45 16 -76t47.5 -48t71 -24t93.5 -7q137 0 186 49z" />
<glyph unicode="'" horiz-adv-x="139" d="M94 450h-49v256h49v-256z" />
<glyph unicode="(" horiz-adv-x="326" d="M279 717l2 -47q-53 -9 -89 -41t-55.5 -86t-28 -119t-8.5 -151q0 -87 8.5 -151.5t28 -118.5t55.5 -86t89 -41l-2 -47q-57 7 -99 33t-67.5 64.5t-41 95t-21 116t-5.5 135.5t5.5 135.5t21 116t41 95t67.5 65t99 32.5z" />
<glyph unicode=")" horiz-adv-x="326" d="M45 670l2 47q57 -6 98.5 -32.5t67.5 -65t41.5 -95t21 -116t5.5 -135.5t-5.5 -135.5t-21 -116t-41.5 -95t-67.5 -64.5t-98.5 -33l-2 47q53 9 89 41.5t55.5 87t28 119t8.5 150.5t-8.5 151t-28.5 119t-56 85.5t-88 40.5z" />
<glyph unicode="*" horiz-adv-x="324" d="M182 628l84 29l13 -40l-85 -26l53 -72l-33 -24l-52 73l-51 -73l-34 24l54 72l-86 26l13 40l85 -29l-1 89h41z" />
<glyph unicode="+" horiz-adv-x="493" d="M270 316h178v-47h-178v-178h-47v178h-178v47h178v178h47v-178z" />
<glyph unicode="," horiz-adv-x="162" d="M87 -11v6q-3 -1 -9 -1q-15 0 -24 9t-9 21.5t9 21t24 8.5q19 0 28 -13q11 -15 11 -46t-11 -47.5t-38 -16.5h-10l4 26h4q13 0 17 6.5t4 25.5z" />
<glyph unicode="-" horiz-adv-x="461" d="M415 322h-370v48h370v-48z" />
<glyph unicode="." horiz-adv-x="156" d="M78 56q15 0 24 -9t9 -21q0 -8 -4 -15t-11.5 -11.5t-17.5 -4.5q-15 0 -24 9t-9 22q0 8 4 15t11.5 11t17.5 4z" />
<glyph unicode="/" horiz-adv-x="465" d="M101 -17h-58l321 734h58z" />
<glyph unicode="0" horiz-adv-x="692" d="M345.5 687q68.5 0 119.5 -18t82.5 -48t50.5 -76t26.5 -95.5t7.5 -112.5t-7.5 -113t-27 -95.5t-51 -76t-82.5 -48t-118.5 -17.5t-118 17.5t-82 48t-51 76t-27 95.5t-7.5 113t7 112.5t26.5 95.5t50.5 76t82 48t119.5 18zM346 639q-67 0 -112.5 -20.5t-70 -62t-34 -93.5 t-9.5 -125.5t10 -126.5t35 -94t70 -61.5t111 -20.5q44 0 79 9.5t59.5 28t42 44t27.5 60.5t14 73.5t4 87t-4 86.5t-13.5 73t-26.5 60t-42 44t-60 28.5t-80 9.5z" />
<glyph unicode="1" horiz-adv-x="327" d="M232 0h-59v627l-138 -31v50l153 34h44v-680z" />
<glyph unicode="2" horiz-adv-x="622" d="M108 506h-55q0 31 6 56t18 43.5t29.5 32.5t39 23.5t48.5 15t56 8t64 2.5q61 0 105.5 -7.5t81 -27t54.5 -56t18 -90.5t-15 -90.5t-47.5 -57t-73.5 -29.5t-103 -13q-115 -7 -169.5 -42.5t-54.5 -120.5v-103h460v-50h-517v153q0 55 19 94.5t57 63.5t86.5 36t114.5 15 q100 6 143.5 35.5t43.5 107.5q0 77 -51 106t-152.5 29t-153 -29t-52.5 -105z" />
<glyph unicode="3" horiz-adv-x="630" d="M119 510h-57q1 51 20 86.5t54 54.5t77 27.5t99 8.5t99.5 -8t78 -26.5t54.5 -54t19 -87.5q0 -70 -33.5 -108t-96.5 -52q72 -15 110 -56.5t38 -118.5q0 -45 -14 -78.5t-37 -54.5t-58 -33.5t-73.5 -17.5t-86.5 -5q-61 0 -106.5 8.5t-83 29.5t-57.5 59t-21 93h56 q2 -81 55 -111.5t156 -30.5q105 0 158 31.5t53 115t-53 114.5t-158 31h-105v46h106q95 0 143 28.5t48 104.5t-48 104.5t-143 28.5t-143 -28t-50 -101z" />
<glyph unicode="4" horiz-adv-x="642" d="M511 204h86v-48h-86v-156h-59v156h-409v52l409 473h59v-477zM107 204h345v400z" />
<glyph unicode="5" horiz-adv-x="618" d="M533 632h-396v-210h174q60 0 105 -9.5t82 -32.5t56.5 -67t19.5 -108q0 -52 -13 -90.5t-36 -62.5t-57 -39t-71.5 -20.5t-85.5 -5.5q-59 0 -103.5 9.5t-81 32t-56.5 63.5t-21 101h61q4 -89 54.5 -123.5t148.5 -34.5q100 0 151 36t51 132q0 98 -50.5 134.5t-151.5 36.5h-236 v306h456v-48z" />
<glyph unicode="6" horiz-adv-x="652" d="M121 360v-34q23 56 79.5 78.5t144.5 22.5q45 0 81.5 -6t70 -21.5t55.5 -40t35.5 -63.5t13.5 -90q0 -64 -20 -108.5t-58.5 -68t-84 -33t-107.5 -9.5q-67 0 -116.5 18t-79 47.5t-46.5 76.5t-23 95.5t-6 112.5q0 40 2 72t7 65.5t14.5 59.5t23.5 51t35 43t47.5 31.5 t62.5 20.5t79 7q204 0 260 -160l-56 -14q-23 63 -70.5 94.5t-133.5 31.5q-52 0 -89.5 -13.5t-60.5 -35.5t-36.5 -59t-18.5 -76t-5 -95zM332 382q-46 0 -80.5 -6.5t-62.5 -21.5t-45 -42t-22 -67q9 -104 56 -157t154 -53q51 0 87.5 7.5t65.5 26t43.5 53.5t14.5 86 q0 42 -10 72.5t-27 50t-44.5 31t-58 16t-71.5 4.5z" />
<glyph unicode="7" horiz-adv-x="594" d="M549 647l-373 -647h-65l367 633h-433v48h504v-34z" />
<glyph unicode="8" horiz-adv-x="685" d="M343 687q47 0 84 -4.5t71.5 -16.5t57.5 -31.5t36.5 -50.5t13.5 -73q0 -69 -34.5 -106.5t-98.5 -51.5q74 -16 113 -57t39 -118q0 -46 -14.5 -79.5t-39 -54.5t-61 -34t-76.5 -18t-91 -5q-64 0 -112.5 8.5t-88.5 29.5t-61 59t-21 94q0 76 39.5 117.5t114.5 57.5 q-32 7 -56 19t-42 31t-27.5 46t-9.5 62q0 51 19.5 86.5t57 54.5t82.5 27t105 8zM343 639q-100 0 -150.5 -29t-50.5 -104t50.5 -103.5t150.5 -28.5q99 0 149 28t50 104t-50 104.5t-149 28.5zM343 326q-109 0 -164.5 -32t-55.5 -114t55.5 -113.5t164.5 -31.5q53 0 90.5 6.5 t67.5 22t45 44.5t15 72t-15 72.5t-45 45t-67.5 22t-90.5 6.5z" />
<glyph unicode="9" horiz-adv-x="652" d="M531 313v35q-24 -56 -80 -78.5t-142 -22.5q-58 0 -102 10t-80.5 34t-56 68.5t-19.5 107.5q0 65 20 109.5t58.5 67.5t84 33t107.5 10q67 0 116.5 -18.5t79 -48t46.5 -76t23 -95t6 -113t-5.5 -112t-22.5 -95t-46 -77t-79 -47.5t-118 -18q-204 0 -260 160l56 14 q23 -63 70.5 -94.5t133.5 -31.5q52 0 89.5 13t60.5 35.5t36.5 59t18 75.5t5.5 95zM320 639q-51 0 -87.5 -7.5t-65.5 -26.5t-43.5 -53.5t-14.5 -86.5q0 -41 10 -72t27 -50t44.5 -30.5t58 -16t71.5 -4.5q95 0 147.5 30t62.5 106q-5 51 -17 87.5t-35.5 65.5t-63 43.5 t-94.5 14.5z" />
<glyph unicode=":" horiz-adv-x="156" d="M78 483q15 0 24 -9t9 -21.5t-9 -21.5t-24 -9t-24 9t-9 21q0 8 4 15t11.5 11.5t17.5 4.5zM78 56q10 0 18 -4t11.5 -11t3.5 -15q0 -13 -9 -22t-24 -9t-24 9t-9 21.5t9 21.5t24 9z" />
<glyph unicode=";" horiz-adv-x="162" d="M78 483q15 0 24 -9t9 -21.5t-9 -21.5t-24 -9t-24 9t-9 21.5t9 21.5t24 9zM88 -10v6q-3 -1 -10 -1q-15 0 -24 9t-9 21.5t9 21t24 8.5q19 0 28 -13q11 -15 11 -47q0 -30 -10.5 -46.5t-38.5 -16.5h-10l4 26h4q13 0 17 7t5 25z" />
<glyph unicode="&#x3c;" horiz-adv-x="472" d="M427 469l-326 -204l326 -204v-56l-382 229v61l382 230v-56z" />
<glyph unicode="=" horiz-adv-x="493" d="M448 360h-403v48h403v-48zM448 166h-403v48h403v-48z" />
<glyph unicode="&#x3e;" horiz-adv-x="472" d="M427 295v-61l-382 -229v56l325 204l-325 204v56z" />
<glyph unicode="?" horiz-adv-x="613" d="M104 533h-59q0 52 19 88t55.5 55.5t81.5 27.5t104 8q47 0 84.5 -4.5t72 -17t57 -32t36 -52t13.5 -74.5q0 -33 -5.5 -59.5t-14 -45t-23 -33t-27 -23.5t-32.5 -16.5t-33 -11t-33 -8.5q-24 -5 -35.5 -8.5t-29.5 -11.5t-26.5 -17.5t-15 -27t-7.5 -40.5v-77h-59v97q0 17 3 31 t6.5 25t12.5 20.5t14.5 15.5t19 12.5t19.5 9.5t23.5 7.5t23.5 6t25 5.5q26 6 40.5 10.5t35 15.5t31.5 25.5t19 39.5t8 59q0 75 -50.5 103t-150.5 28q-49 0 -84.5 -6t-63 -20t-41.5 -40.5t-14 -64.5zM256.5 60q9.5 0 17.5 -4t12.5 -11.5t4.5 -16.5t-4.5 -16.5t-12.5 -12 t-17 -4.5q-15 0 -25 9.5t-10 23.5q0 9 4.5 16.5t12.5 11.5t17.5 4z" />
<glyph unicode="@" horiz-adv-x="988" d="M616 -158l13 -51q-70 -17 -136 -17q-136 0 -238.5 60.5t-156 166.5t-53.5 243q0 136 52 241t154.5 166t241.5 61q103 0 188 -34t142 -94.5t88.5 -144t31.5 -181.5q0 -104 -60.5 -166.5t-156.5 -62.5h-123l-1 59q-35 -40 -70.5 -54.5t-75.5 -14.5q-89 0 -139.5 56 t-50.5 155q0 91 60.5 148.5t154.5 57.5q68 0 118 -31v26h47v-349h83q72 1 115.5 48t43.5 128q0 118 -47 208.5t-137 141.5t-211 51q-122 0 -212 -53t-136 -146.5t-46 -215.5q0 -187 106 -301.5t288 -114.5q63 0 123 14zM599 130v233q-42 34 -108 34q-80 0 -128.5 -47 t-48.5 -121q0 -80 39.5 -125.5t113.5 -45.5q37 0 67.5 14.5t64.5 57.5z" />
<glyph unicode="A" d="M688 0h-62l-80 193h-361l-80 -193h-62l291 700h63zM203 243h325l-162 393z" />
<glyph unicode="B" horiz-adv-x="690" d="M98 700h313q87 0 136.5 -48.5t49.5 -128.5q0 -28 -6.5 -53t-19 -45t-30.5 -35t-42 -25q61 -16 94 -62.5t33 -113.5q0 -86 -52 -137.5t-144 -51.5h-332v700zM157 652v-267h258q39 2 66.5 19t41.5 46t14 68q0 62 -34.5 98t-97.5 36h-248zM157 49h263q68 0 105 38.5 t37 105.5q0 66 -37.5 104.5t-104.5 38.5h-263v-287z" />
<glyph unicode="C" horiz-adv-x="685" d="M587 88l38 -41q-85 -58 -203 -58q-164 0 -258 101t-94 260.5t94 260.5t258 101q118 0 203 -58l-38 -41q-68 48 -165 48q-137 0 -214.5 -85t-77.5 -225.5t77.5 -226t214.5 -85.5q97 0 165 49z" />
<glyph unicode="D" horiz-adv-x="743" d="M98 700h223q164 0 258 -95.5t94 -254.5q0 -160 -93 -255t-259 -95h-223v700zM157 50h164q92 0 158.5 36.5t100 104t33.5 159.5q0 139 -77 219.5t-215 80.5h-164v-600z" />
<glyph unicode="E" horiz-adv-x="591" d="M535 650h-378v-264h346v-50h-346v-286h378v-50h-437v700h437v-50z" />
<glyph unicode="F" horiz-adv-x="574" d="M518 650h-361v-276h329v-49h-329v-325h-59v700h420v-50z" />
<glyph unicode="G" horiz-adv-x="790" d="M701 375v-262q-96 -125 -279 -125q-162 0 -257 101t-95 261t94 261t258 101q166 0 262 -106l-36 -34q-88 89 -226 89q-89 0 -155.5 -38.5t-101.5 -109t-35 -163t34.5 -163t101 -110t156.5 -39.5q142 0 220 92v197h-220v48h279z" />
<glyph unicode="H" horiz-adv-x="749" d="M652 0h-60v325h-435v-325h-59v700h59v-325h435v325h60v-700z" />
<glyph unicode="I" horiz-adv-x="255" d="M157 0h-59v700h59v-700z" />
<glyph unicode="J" horiz-adv-x="502" d="M404 700v-429q0 -64 -12.5 -112.5t-41 -86.5t-79.5 -58t-123 -20q-58 0 -105 16l11 42q41 -10 94 -10q109 0 153 56.5t44 172.5v429h59z" />
<glyph unicode="K" horiz-adv-x="645" d="M318 387l284 -387h-73l-249 341l-124 -149v-192h-58v700h58v-421l347 421h74z" />
<glyph unicode="L" horiz-adv-x="564" d="M157 48h365v-48h-424v700h59v-652z" />
<glyph unicode="M" horiz-adv-x="883" d="M785 0h-59v585l-260 -585h-58l-260 585v-585h-59v700h73l275 -632l274 632h74v-700z" />
<glyph unicode="N" horiz-adv-x="728" d="M639 0h-72l-419 601v-601h-59v700h72l419 -601v601h59v-700z" />
<glyph unicode="O" horiz-adv-x="844" d="M421.5 712q163.5 0 258 -101t94.5 -261q0 -161 -93.5 -261.5t-258.5 -100.5q-162 0 -257 101t-95 261t94 261t257.5 101zM421.5 661q-136.5 0 -214 -85t-77.5 -226t78.5 -226.5t213.5 -85.5q138 0 215.5 85t77.5 227q0 141 -78.5 226t-215 85z" />
<glyph unicode="P" horiz-adv-x="688" d="M98 700h288q109 0 171.5 -63.5t62.5 -166.5q0 -105 -62 -168t-172 -63h-229v-239h-59v700zM157 651v-363h224q85 0 132.5 48.5t47.5 133.5q0 83 -48 132t-132 49h-224z" />
<glyph unicode="Q" horiz-adv-x="848" d="M746 -15l-87 87q-91 -84 -237 -84q-162 0 -257 101t-95 261t94 261t257.5 101t258 -101t94.5 -261q0 -145 -76 -240l86 -87zM421.5 661q-136.5 0 -214 -85t-77.5 -226t78.5 -226.5t213.5 -85.5q138 0 215.5 85t77.5 227q0 141 -78.5 226t-215 85z" />
<glyph unicode="R" horiz-adv-x="698" d="M98 700h288q103 0 162.5 -60t59.5 -158q0 -58 -20.5 -103t-59.5 -73.5t-94 -36.5l199 -269h-71l-190 263h-215v-263h-59v700zM157 651v-339h223q80 0 124 45.5t44 124.5q0 78 -44.5 123.5t-123.5 45.5h-223z" />
<glyph unicode="S" horiz-adv-x="684" d="M49 84l36 40q39 -39 109.5 -62.5t147.5 -23.5q59 0 107.5 14.5t81.5 47.5t33 81q0 20 -3.5 36.5t-13 29.5t-18.5 23t-27.5 18t-31 13t-37.5 11t-39.5 8.5t-44.5 8.5q-22 4 -34 6q-43 8 -72.5 15.5t-63 21.5t-54 32t-34 47t-13.5 67q0 63 42.5 108.5t106 65.5t139.5 20 q136 0 231 -57l-35 -43q-83 52 -202 52q-60 0 -109 -15.5t-80.5 -48.5t-31.5 -79q0 -24 7 -42.5t22 -32t30.5 -23t40.5 -17t44 -12t49 -10.5q8 -2 25 -5q31 -5 47 -8.5t44 -10t42.5 -11.5t37 -14.5t34 -19t26.5 -23t22 -29.5t12 -36.5t5 -44.5q0 -64 -42.5 -109.5 t-105.5 -65t-139 -19.5q-85 0 -165.5 25.5t-125.5 70.5z" />
<glyph unicode="T" horiz-adv-x="666" d="M623 650h-260v-650h-60v650h-260v50h580v-50z" />
<glyph unicode="U" horiz-adv-x="745" d="M656 700v-382q0 -77 -13.5 -135t-44.5 -103.5t-86.5 -69t-134.5 -23.5q-78 0 -133.5 23t-87 68t-45 103.5t-13.5 136.5v382h59v-378q0 -143 49.5 -212t170.5 -69t170.5 70t49.5 211v378h59z" />
<glyph unicode="V" horiz-adv-x="716" d="M388 0h-60l-285 700h62l253 -632l254 632h62z" />
<glyph unicode="W" horiz-adv-x="1091" d="M578 700l199 -611l206 611h65l-242 -700h-62l-199 604l-199 -604h-61l-242 700h65l206 -611l199 611h65z" />
<glyph unicode="X" horiz-adv-x="679" d="M379 358l257 -358h-68l-229 319l-228 -319h-68l257 360l-241 340h69l212 -301l211 301h69z" />
<glyph unicode="Y" horiz-adv-x="690" d="M375 279v-279h-60v279l-272 421h69l233 -366l234 366h68z" />
<glyph unicode="Z" horiz-adv-x="640" d="M584 665l-455 -615h462v-50h-542v35l454 615h-419v50h500v-35z" />
<glyph unicode="[" horiz-adv-x="287" d="M242 672h-142v-791h142v-44h-197v880h197v-45z" />
<glyph unicode="\" horiz-adv-x="465" d="M422 -17h-58l-321 734h58z" />
<glyph unicode="]" horiz-adv-x="287" d="M242 -163h-197v44h142v791h-142v45h197v-880z" />
<glyph unicode="^" horiz-adv-x="564" d="M519 385h-67l-170 262l-171 -262h-66l207 312h60z" />
<glyph unicode="_" horiz-adv-x="551" d="M506 -153h-461v48h461v-48z" />
<glyph unicode="`" horiz-adv-x="279" d="M234 595l-30 -36l-159 133l30 36z" />
<glyph unicode="a" horiz-adv-x="580" d="M111 427l-16 37q90 49 186 49q42 0 81 -11.5t71 -34t51 -58.5t19 -81v-328h-51l-3 75q-76 -87 -200 -87q-81 0 -138 43t-57 121q0 55 31.5 93.5t78.5 55t104 16.5q101 0 178 -44v56q-1 66 -53 104t-121 38q-83 0 -161 -44zM446 116v117q-70 46 -168 46 q-73 0 -121.5 -31.5t-48.5 -92.5q0 -59 44.5 -91.5t110.5 -32.5q115 0 183 85z" />
<glyph unicode="b" horiz-adv-x="618" d="M143 738v-311q60 51 101 68.5t89 17.5q111 0 168.5 -69t57.5 -193q0 -121 -62.5 -192t-173.5 -71q-117 0 -184 86l-2 -74h-52v738h58zM143 376v-251q59 -91 165 -91q95 0 144.5 59t49.5 158q0 216 -182 216q-44 0 -81 -18t-96 -73z" />
<glyph unicode="c" horiz-adv-x="517" d="M436 63l31 -37q-27 -19 -67 -29t-79 -10q-120 0 -191 74t-71 189q0 114 70 188.5t192 74.5q91 0 142 -37l-32 -36q-35 27 -107 27q-95 0 -151.5 -60.5t-56.5 -156.5q0 -98 57 -157.5t151 -59.5q69 0 112 30z" />
<glyph unicode="d" horiz-adv-x="618" d="M533 0h-52l-2 74q-67 -86 -184 -86q-111 0 -173.5 71t-62.5 192q0 124 57.5 193t168.5 69q48 0 89 -17.5t102 -68.5v311h57v-738zM476 125v251q-60 55 -97 73t-81 18q-182 0 -182 -216q0 -99 50 -158t144 -59q107 0 166 91z" />
<glyph unicode="e" horiz-adv-x="601" d="M484 72l25 -31q-80 -53 -191 -53q-81 0 -140 34t-89 93.5t-30 136.5q0 115 66.5 188.5t186.5 73.5q115 0 177 -58.5t62 -170.5q0 -34 -6 -66h-429q9 -85 62 -135t140 -51q91 -2 166 39zM116 255h379q2 20 2 40q0 175 -184 175q-92 0 -143.5 -56.5t-53.5 -147.5v-11z" />
<glyph unicode="f" horiz-adv-x="390" d="M390 748v-44q-94 0 -150 -49q-57 -50 -57 -155h165v-44h-165v-456h-57v456h-92v44h92q0 129 78 192q71 59 186 56z" />
<glyph unicode="g" horiz-adv-x="601" d="M208 50h92q40 1 71.5 -1.5t66.5 -12t58.5 -25.5t39 -45t15.5 -68q0 -40 -21.5 -71t-57.5 -48t-78.5 -25.5t-89.5 -8.5q-48 0 -91 8t-81 25t-60.5 48t-22.5 72q0 101 102 133q-35 6 -55 25.5t-20 43.5t17 47t48 40q-69 48 -69 146q0 87 59.5 135.5t156.5 48.5 q57 0 102 -17h156v-36l-112 -3q70 -41 70 -128q0 -90 -58 -137.5t-158 -47.5q-60 0 -104 20q-28 -12 -42.5 -29t-14.5 -35q0 -22 21.5 -37.5t59.5 -16.5zM288 472q-75 0 -119 -36.5t-44 -102.5q0 -68 43.5 -104t119.5 -36t119.5 36.5t43.5 103t-44 103t-119 36.5zM289 7 q-33 0 -58.5 -2.5t-50 -9.5t-40 -19t-25 -31.5t-9.5 -46.5q0 -54 53.5 -81.5t135.5 -27.5q86 0 142 27t56 82q0 24 -7 42t-21 29.5t-31 19.5t-42 11.5t-48 5t-55 1.5z" />
<glyph unicode="h" horiz-adv-x="626" d="M151 738v-314q55 48 96 69t94 21q52 0 98.5 -20t78 -63.5t31.5 -102.5v-328h-57v318q0 36 -14.5 65t-38 47t-53 27.5t-60.5 9.5q-46 0 -83 -20t-92 -71v-376h-57v738h57z" />
<glyph unicode="i" horiz-adv-x="241" d="M126 683q9 0 17 -4.5t12.5 -12t4.5 -16.5q0 -13 -10 -22.5t-24.5 -9.5t-24.5 9.5t-10 23t10 23t25 9.5zM154 0h-57v500h57v-500z" />
<glyph unicode="j" horiz-adv-x="246" d="M130 683q9 0 17 -4.5t12.5 -12t4.5 -16.5q0 -13 -10 -22.5t-24.5 -9.5t-24.5 9.5t-10 23t10 23t25 9.5zM158 500v-519q0 -113 -72 -172q-61 -59 -159 -65v44q82 9 129 61q45 48 45 132v519h57z" />
<glyph unicode="k" horiz-adv-x="545" d="M151 238l264 262h66l-195 -198l223 -302h-68l-190 261l-100 -97v-164h-57v737h57v-499z" />
<glyph unicode="l" horiz-adv-x="342" d="M151 738v-528q0 -86 38 -129q38 -42 115 -42v-44q-101 -3 -155 50q-55 55 -55 165v528h57z" />
<glyph unicode="m" horiz-adv-x="946" d="M137 500l2 -75q50 47 87.5 68t86.5 21q51 0 97 -23.5t72 -67.5q55 52 97 71.5t95 19.5q49 0 92.5 -20t73.5 -63.5t30 -102.5v-328h-58v318q0 70 -45 109.5t-106 39.5q-44 0 -79 -17t-86 -66q11 -29 11 -61v-323h-58v318q0 47 -22.5 82t-56 51t-72.5 16q-41 0 -74 -19.5 t-81 -68.5v-379h-58v500h52z" />
<glyph unicode="n" horiz-adv-x="621" d="M137 500l2 -77q55 48 97 69.5t96 21.5q53 0 100.5 -20t79.5 -63.5t32 -102.5v-328h-57v318q0 70 -50 109.5t-118 39.5q-32 0 -59.5 -9.5t-53.5 -27.5t-63 -52v-378h-58v500h52z" />
<glyph unicode="o" horiz-adv-x="641" d="M321 513q122 0 191.5 -72.5t69.5 -190.5t-68.5 -190.5t-192.5 -72.5q-123 0 -192.5 73.5t-69.5 189.5t69.5 189.5t192.5 73.5zM321 467q-95 0 -150 -59.5t-55 -157.5t55 -157.5t150 -59.5q96 0 150 58.5t54 158.5t-54.5 158.5t-149.5 58.5z" />
<glyph unicode="p" horiz-adv-x="627" d="M146 500l2 -74q67 86 184 86q112 0 174 -70.5t62 -192.5q0 -124 -57.5 -193t-168.5 -69q-48 0 -89 17.5t-102 68.5v-311h-57v738h52zM151 375v-251q60 -55 97 -73t81 -18q182 0 182 216q0 99 -50 158t-144 59q-107 0 -166 -91z" />
<glyph unicode="q" horiz-adv-x="618" d="M476 -238v311q-61 -51 -102 -68.5t-89 -17.5q-111 0 -168.5 69t-57.5 193q0 122 62 192.5t174 70.5q117 0 184 -86l2 74h52v-738h-57zM476 124v251q-59 91 -166 91q-94 0 -144 -59t-50 -158q0 -216 182 -216q44 0 81 18t97 73z" />
<glyph unicode="r" horiz-adv-x="359" d="M334 513v-47h-14q-50 0 -96.5 -25.5t-80.5 -77.5v-363h-58v500h52l2 -88q36 49 85 75t103 26h7z" />
<glyph unicode="s" horiz-adv-x="502" d="M39 59l20 37q18 -18 48.5 -32t67.5 -21.5t73 -7.5q66 0 109 24.5t43 73.5q0 22 -8 38.5t-18.5 26t-33 17t-37.5 11t-46 8.5q-13 3 -19 4q-35 6 -57 11.5t-47.5 15.5t-39.5 23t-23.5 34t-9.5 49q0 46 30.5 78.5t76 47t100.5 14.5q101 0 170 -43l-18 -38q-64 37 -153 37 q-63 0 -106.5 -25t-43.5 -70q0 -19 7 -33t16.5 -23t27 -16t32.5 -10.5t39 -8.5q7 -1 22 -4q30 -5 44.5 -8t39.5 -9.5t37.5 -12.5t29.5 -17t25 -24t14 -32t6 -42q0 -35 -18 -63t-47.5 -44.5t-66 -25t-75.5 -8.5q-62 0 -120 18.5t-91 49.5z" />
<glyph unicode="t" horiz-adv-x="397" d="M182 500h152v-44h-152v-249q0 -73 40 -117q39 -44 115 -52v-44q-100 6 -154 59q-58 56 -58 154v249h-101v44h101v146h57v-146z" />
<glyph unicode="u" horiz-adv-x="612" d="M536 0h-52l-2 77q-37 -32 -63.5 -50t-59.5 -29.5t-70 -11.5q-53 0 -100.5 19.5t-80 63.5t-32.5 103v328h58v-318q0 -70 50 -109.5t118 -39.5q47 0 84 19.5t92 69.5v378h58v-500z" />
<glyph unicode="v" horiz-adv-x="516" d="M289 0h-62l-202 500h59l174 -442l174 442h59z" />
<glyph unicode="w" horiz-adv-x="815" d="M607 0h-61l-139 416l-138 -416h-61l-183 500h59l154 -432l142 432h54l143 -432l154 432h59z" />
<glyph unicode="x" horiz-adv-x="497" d="M286 250l186 -250h-63l-159 214l-162 -214h-63l190 251l-182 249h62l155 -210l152 210h62z" />
<glyph unicode="y" horiz-adv-x="546" d="M521 500l-242 -598q-31 -77 -94 -115q-59 -35 -145 -35v44q73 0 123 32q47 32 72 92l31 80h-11l-205 500h59l178 -443l175 443h59z" />
<glyph unicode="z" horiz-adv-x="473" d="M424 475l-308 -431h314v-44h-389v26l308 430h-292v44h367v-25z" />
<glyph unicode="{" horiz-adv-x="378" d="M331 714l2 -43q-73 -9 -114.5 -53t-41.5 -116v-127q0 -37 -19 -64.5t-50 -41.5q20 -8 35.5 -23t24.5 -36t9 -46v-127q0 -73 42 -116.5t114 -52.5l-2 -44q-95 9 -152 62.5t-57 150.5v127q0 34 -20 56t-57 26v47q37 4 57 26t20 56v127q0 97 57.5 150.5t151.5 61.5z" />
<glyph unicode="|" horiz-adv-x="150" d="M105 -144h-60v894h60v-894z" />
<glyph unicode="}" horiz-adv-x="378" d="M45 670l1 45q95 -9 152 -62.5t57 -150.5v-127q0 -34 20 -56t58 -26v-47q-38 -4 -58 -26t-20 -56v-127q0 -97 -56.5 -150.5t-152.5 -62.5l-1 44q72 9 113.5 53t41.5 116v127q0 37 19 64.5t51 40.5q-32 14 -51 41.5t-19 64.5v127q0 72 -41.5 116t-113.5 52z" />
<glyph unicode="~" horiz-adv-x="531" d="M76 246l-31 18q45 88 120 88q46 0 120 -42q55 -31 96 -31q55 0 73 51l32 -16q-14 -37 -41.5 -56t-61.5 -19q-46 0 -103 33q-72 41 -113 41q-58 0 -91 -67z" />
<glyph unicode="&#xa1;" horiz-adv-x="160" d="M79.5 524q14.5 0 25 -9.5t10.5 -23t-10.5 -23t-25 -9.5t-24.5 9.5t-10 23t10 23t24.5 9.5zM108 -180h-56v547h56v-547z" />
<glyph unicode="&#xa2;" horiz-adv-x="495" d="M313 512l11 -1q79 -4 124 -35l-32 -36q-36 27 -107 27q-95 0 -151.5 -60.5t-56.5 -156.5q0 -98 57 -157.5t151 -59.5q69 0 112 30l31 -37q-51 -33 -128 -37l-11 -1v-78h-54v82q-99 13 -157 84t-58 174q0 102 57 173.5t158 84.5v83h54v-79z" />
<glyph unicode="&#xa3;" horiz-adv-x="628" d="M46 360h77q-26 90 -26 151q3 202 236 202q55 0 95.5 -9t73 -29t50 -56.5t18.5 -89.5h-58q-2 75 -46.5 104t-130.5 29q-55 0 -92.5 -14.5t-60.5 -49.5t-24 -92q0 -56 27 -146h270v-50h-260q10 -39 10 -68q0 -85 -82 -192h460v-50h-538v50q90 102 97 176q1 11 1 23 q0 26 -8 61h-89v50z" />
<glyph unicode="&#xa4;" horiz-adv-x="730" />
<glyph unicode="&#xa5;" horiz-adv-x="690" d="M437 374h94v-45h-121l-35 -58v-61h156v-45h-156v-165h-60v165h-156v45h156v61l-35 58h-121v45h94l-210 326h69l233 -366l234 366h68z" />
<glyph unicode="&#xa6;" horiz-adv-x="150" d="M105 384h-60v366h60v-366zM105 -144h-60v366h60v-366z" />
<glyph unicode="&#xa7;" horiz-adv-x="562" d="M45 -67l28 41q33 -31 93 -51.5t123 -20.5q48 0 85.5 12t62 38.5t24.5 64.5q0 19 -5 33.5t-12 25t-21 19.5t-25 14t-32.5 10.5t-34 8t-38.5 7.5q-11 2 -17 3q-33 6 -54 11t-46.5 13.5t-41.5 19t-30.5 26t-21 37t-6.5 49.5q0 31 13 57t35 44t52 30q-31 11 -52 26 t-34.5 40.5t-13.5 60.5q0 40 19.5 72t53 51.5t75 29.5t87.5 10q107 0 183 -46l-28 -42q-70 40 -162 40q-46 0 -84 -12t-62.5 -38t-24.5 -62q0 -22 8 -38.5t20 -27t33 -19t38.5 -12.5t45.5 -9q6 -1 19 -4q26 -4 38.5 -6.5t35.5 -8t35 -10t30.5 -12t28 -16t21.5 -20 t17.5 -25.5t9.5 -32t4 -39q0 -84 -88 -127q43 -18 65.5 -49t22.5 -82q0 -41 -20 -73.5t-53.5 -51.5t-74.5 -29t-86 -10q-70 0 -135.5 21t-102.5 58zM272 398l-31 6q-49 -11 -79.5 -38t-30.5 -68q0 -22 8 -38.5t19.5 -26.5t32 -18.5t38.5 -13t45 -9.5q80 -15 98 -20 q42 13 67 39t25 64q0 19 -5.5 34t-12 25.5t-21 19t-25.5 14t-32.5 11t-34 8t-38.5 7.5q-15 2 -23 4z" />
<glyph unicode="&#xa8;" horiz-adv-x="356" d="M81.5 665q15.5 0 24 -9t8.5 -21.5t-9 -21.5t-24 -9t-23.5 9t-8.5 21.5t8.5 21.5t24 9zM275 665q15 0 24 -9t9 -21.5t-9 -21.5t-24 -9t-24 9t-9 22q0 8 3.5 14.5t11.5 11t18 4.5z" />
<glyph unicode="&#xa9;" horiz-adv-x="810" d="M405 710q73 0 139.5 -28.5t115 -76.5t77 -115t28.5 -140q0 -98 -48.5 -181t-131 -131t-180.5 -48t-181 48t-131 131t-48 181q0 73 28.5 140t76.5 115t115 76.5t140 28.5zM405 669q-86 0 -159.5 -42.5t-116 -116t-42.5 -160t42.5 -160t116 -116t159.5 -42.5t159.5 42.5 t116 116t42.5 159.5q0 65 -25.5 124t-68 102t-101.5 68t-123 25zM499 217l27 -29q-47 -35 -115 -35q-89 0 -140.5 55.5t-51.5 141.5t51.5 141.5t140.5 55.5q68 0 115 -35l-27 -29q-35 29 -88 29q-70 0 -110 -44.5t-40 -117.5t40 -117t110 -44q53 0 88 28z" />
<glyph unicode="&#xaa;" horiz-adv-x="544" d="M148 642l-13 29q62 35 129 35q61 0 106.5 -33.5t45.5 -93.5v-223h-41l-1 46q-51 -54 -132 -54q-55 0 -94.5 30t-39.5 83q0 56 43 84.5t104 28.5q65 0 116 -28v35q0 29 -17 50.5t-42 31.5t-54 10q-57 0 -110 -31zM371 437v77q-46 29 -109 29q-48 0 -79.5 -20t-31.5 -60 q0 -26 14 -44.5t36.5 -27t50.5 -8.5q75 0 119 54z" />
<glyph unicode="&#xab;" horiz-adv-x="554" d="M299 497l-187 -204l187 -204l-38 -30l-216 234l216 234zM509 497l-187 -204l187 -204l-37 -30l-217 234l217 234z" />
<glyph unicode="&#xac;" horiz-adv-x="730" />
<glyph unicode="&#xad;" horiz-adv-x="461" d="M415 322h-370v48h370v-48z" />
<glyph unicode="&#xae;" horiz-adv-x="810" d="M405 710q73 0 139.5 -28.5t115 -76.5t77 -115t28.5 -140q0 -98 -48.5 -181t-131 -131t-180.5 -48t-181 48t-131 131t-48 181q0 73 28.5 140t76.5 115t115 76.5t140 28.5zM405 669q-86 0 -159.5 -42.5t-116 -116t-42.5 -160t42.5 -160t116 -116t159.5 -42.5t159.5 42.5 t116 116t42.5 160t-42.5 160t-116 116t-159.5 42.5zM270 537h153q55 0 87.5 -32.5t32.5 -84.5q0 -44 -23 -74t-65 -38l105 -142h-46l-96 136h-110v-136h-38v371zM308 335h113q40 0 61.5 22.5t21.5 62.5t-22 62.5t-61 22.5h-113v-170z" />
<glyph unicode="&#xaf;" horiz-adv-x="390" d="M345 676h-300v38h300v-38z" />
<glyph unicode="&#xb0;" horiz-adv-x="395" d="M197 801q42 0 77 -20t55.5 -54t20.5 -74q0 -61 -44.5 -104.5t-108 -43.5t-108 43.5t-44.5 104.5t44.5 104.5t107.5 43.5zM197 765q-29 0 -55 -14.5t-41.5 -40.5t-15.5 -57q0 -47 33.5 -80t79 -33t78.5 33t33 80t-33 79.5t-79 32.5z" />
<glyph unicode="&#xb1;" horiz-adv-x="493" d="M270 413h178v-48h-178v-174h-47v174h-178v48h178v173h47v-173zM448 -16h-403v48h403v-48z" />
<glyph unicode="&#xb2;" horiz-adv-x="368" d="M91 603h-43q-2 57 34 80t104 23q65 0 101 -21t36 -75.5t-31 -76t-96 -24.5q-54 -4 -79 -19.5t-25 -53.5v-49h229v-37h-273v83q0 56 38 81.5t107 29.5q48 2 67.5 15t19.5 50q0 36 -23 48.5t-72 12.5q-50 0 -72.5 -13.5t-21.5 -53.5z" />
<glyph unicode="&#xb3;" horiz-adv-x="374" d="M98 610h-44q0 96 133 96t133 -94q0 -60 -54 -80q63 -20 63 -87q0 -56 -38.5 -78.5t-103.5 -22.5q-141 0 -142 103h43q1 -39 24.5 -53t74 -14t74 14t23.5 53.5t-23.5 53.5t-74.5 14h-50v33h51q22 0 37.5 3t27.5 9.5t17.5 18.5t5.5 31q0 35 -21 47.5t-67 12.5 q-31 0 -49.5 -4.5t-29 -18t-10.5 -37.5z" />
<glyph unicode="&#xb4;" horiz-adv-x="279" d="M234 692l-159 -133l-30 36l159 133z" />
<glyph unicode="&#xb6;" horiz-adv-x="744" d="M699 652h-99v-886h-60v886h-158v-886h-60v474h-55q-69 2 -119.5 31.5t-76.5 80.5t-26 118q0 103 62.5 166.5t171.5 63.5h420v-48z" />
<glyph unicode="&#xb7;" horiz-adv-x="156" d="M78 333q15 0 24 -8.5t9 -21.5t-9 -21.5t-24 -8.5t-24 8.5t-9 21t9 21.5t24 9z" />
<glyph unicode="&#xb8;" horiz-adv-x="297" d="M178 7l-41 -68q11 2 18 2q43 -1 70 -24t27 -63q0 -44 -31.5 -69t-80.5 -25q-67 0 -95 41l24 22q20 -28 68 -28q33 0 52.5 16t19.5 45q0 28 -20 44.5t-54 16.5q-18 0 -31 -4l-17 10l50 84h41z" />
<glyph unicode="&#xb9;" horiz-adv-x="204" d="M159 348h-45v311l-69 -15v37l83 19h31v-352z" />
<glyph unicode="&#xba;" horiz-adv-x="601" d="M301 706q83 0 130.5 -49.5t47.5 -129.5t-47 -129.5t-131 -49.5t-131.5 50t-47.5 128.5t47.5 129t131.5 50.5zM301 670q-42 0 -72.5 -18t-46 -50.5t-15.5 -74.5q0 -65 35.5 -104t98.5 -39t98 38.5t35 104.5t-35.5 104.5t-97.5 38.5z" />
<glyph unicode="&#xbb;" horiz-adv-x="554" d="M509 293l-216 -234l-38 30l187 204l-187 204l38 30zM299 293l-217 -234l-37 30l187 204l-187 204l37 30z" />
<glyph unicode="&#xbc;" horiz-adv-x="658" d="M113 -17h-59l450 734h59zM166 348h-45v311l-69 -15v37l83 19h31v-352zM570 114h43v-36h-43v-78h-40v78h-209v34l208 240h41v-238zM372 114h158v185z" />
<glyph unicode="&#xbd;" horiz-adv-x="743" d="M113 -17h-59l450 734h59zM166 348h-45v311l-69 -15v37l83 19h31v-352zM465 253h-43q-2 57 34.5 80t103.5 23q66 0 102 -21.5t36 -76t-31.5 -75.5t-95.5 -25q-54 -3 -79.5 -19t-25.5 -54v-48h230v-37h-274v82q0 56 38 81.5t108 29.5q48 3 67 16t19 49q0 19 -6 31.5 t-18.5 19t-29 9t-40.5 2.5q-51 0 -73.5 -14t-21.5 -53z" />
<glyph unicode="&#xbe;" horiz-adv-x="769" d="M224 -17h-60l450 734h59zM98 610h-44q0 96 133 96t133 -94q0 -60 -54 -80q63 -20 63 -87q0 -56 -38.5 -78.5t-103.5 -22.5q-141 0 -142 103h43q0 -39 24 -53t74.5 -14t74 14t23.5 53.5t-23.5 53.5t-74.5 14h-50v33h51q30 0 48 5t29 19t11 38q0 35 -21 47.5t-67 12.5 q-15 0 -27 -1t-22 -3.5t-17.5 -7t-12.5 -11t-7.5 -16t-2.5 -21.5zM681 114h43v-36h-43v-78h-40v78h-209v34l208 240h41v-238zM482 114h159v185z" />
<glyph unicode="&#xbf;" horiz-adv-x="613" d="M356.5 545q14.5 0 24.5 -9.5t10 -23.5q0 -9 -4.5 -16.5t-12.5 -11.5t-18 -4q-14 0 -24 9.5t-10 23t10 23t24.5 9.5zM386 387v-97q0 -15 -1.5 -28t-6.5 -23.5t-9 -19t-13.5 -16t-14.5 -12.5t-18.5 -10t-18.5 -7.5t-21.5 -6.5t-21 -5l-22.5 -5q-26 -6 -40.5 -10.5 t-35 -15.5t-31.5 -25.5t-19 -39.5t-8 -59q0 -75 50.5 -103t150.5 -28q101 0 152 28t51 102h59q0 -52 -19 -87.5t-55.5 -55t-81.5 -27.5t-104 -8q-47 0 -84.5 4.5t-72 17t-57 32t-36 51.5t-13.5 75q0 33 5.5 59.5t14 45t23 33t27 23.5t32.5 16.5t33 11t33 8.5q20 4 30 7 t26 8.5t24 12.5t17 17.5t12.5 25.5t4.5 35v76h59z" />
<glyph unicode="&#xc0;" d="M459 795l-30 -36l-159 133l30 36zM688 0h-62l-80 193h-361l-80 -193h-62l291 700h63zM203 243h325l-162 393z" />
<glyph unicode="&#xc1;" d="M462 892l-160 -133l-30 36l160 133zM688 0h-62l-80 193h-361l-80 -193h-62l291 700h63zM203 243h325l-162 393z" />
<glyph unicode="&#xc2;" d="M516 785l-31 -31l-121 124l-121 -124l-31 31l152 153zM688 0h-62l-80 193h-361l-80 -193h-62l291 700h63zM203 243h325l-162 393z" />
<glyph unicode="&#xc3;" d="M263 815l-34 19q29 63 75 63q26 0 66 -22q42 -23 61 -23q24 0 39 34l34 -19q-23 -55 -67 -55q-27 0 -69 23q-40 22 -58 22q-27 0 -47 -42zM688 0h-62l-80 193h-361l-80 -193h-62l291 700h63zM203 243h325l-162 393z" />
<glyph unicode="&#xc4;" d="M268 865q10 0 17.5 -4.5t11 -11t3.5 -14.5q0 -13 -8.5 -22t-23.5 -9t-24 9t-9 21.5t8.5 21.5t24.5 9zM461 865q15 0 24 -9t9 -21.5t-9 -21.5t-24 -9t-24 9t-9 22q0 8 3.5 14.5t11.5 11t18 4.5zM688 0h-62l-80 193h-361l-80 -193h-62l291 700h63zM203 243h325l-162 393z " />
<glyph unicode="&#xc5;" d="M364.5 961q46.5 0 78.5 -31.5t32 -75t-32 -75t-78.5 -31.5t-78.5 31.5t-32 75t32 75t78.5 31.5zM364 929q-29 0 -51.5 -21.5t-22.5 -52.5q0 -21 10.5 -38.5t27.5 -27t36 -9.5q30 0 52.5 21.5t22.5 53.5q0 21 -11 38t-28 26.5t-36 9.5zM688 0h-62l-80 193h-361l-80 -193 h-62l291 700h63zM203 243h325l-162 393z" />
<glyph unicode="&#xc6;" horiz-adv-x="859" d="M803 650h-378v-264h346v-50h-346v-286h378v-50h-437v193h-181l-80 -193h-62l291 700h469v-50zM203 243h163v393z" />
<glyph unicode="&#xc7;" horiz-adv-x="685" d="M282 -77l46 76q-122 27 -190 122t-68 229q0 160 94 261t258 101q118 0 203 -58l-38 -41q-67 48 -165 48q-137 0 -214.5 -85t-77.5 -225.5t77.5 -226t214.5 -85.5q98 0 165 49l38 -41q-82 -55 -195 -58q-35 0 -64 4l-35 -54q13 2 20 2q43 -2 69.5 -24.5t26.5 -62.5 q0 -44 -32 -69t-81 -25q-67 0 -95 41l25 22q20 -28 67 -28q33 0 53 16t20 45q0 28 -20.5 44.5t-54.5 16.5q-18 0 -30 -4z" />
<glyph unicode="&#xc8;" horiz-adv-x="591" d="M395 795l-31 -36l-159 133l30 36zM535 650h-378v-264h346v-50h-346v-286h378v-50h-437v700h437v-50z" />
<glyph unicode="&#xc9;" horiz-adv-x="591" d="M397 892l-159 -133l-31 36l160 133zM535 650h-378v-264h346v-50h-346v-286h378v-50h-437v700h437v-50z" />
<glyph unicode="&#xca;" horiz-adv-x="591" d="M451 785l-31 -31l-121 124l-121 -124l-31 31l152 153zM535 650h-378v-264h346v-50h-346v-286h378v-50h-437v700h437v-50z" />
<glyph unicode="&#xcb;" horiz-adv-x="591" d="M203 865q15 0 24 -9t9 -21.5t-9 -21.5t-24 -9t-24 9t-9 21.5t9 21.5t24 9zM396 865q10 0 17.5 -4.5t11.5 -11t4 -14.5q0 -13 -9 -22t-24 -9t-24 9t-9 22q0 8 4 14.5t11.5 11t17.5 4.5zM535 650h-378v-264h346v-50h-346v-286h378v-50h-437v700h437v-50z" />
<glyph unicode="&#xcc;" horiz-adv-x="255" d="M222 795l-30 -36l-159 133l30 36zM157 0h-59v700h59v-700z" />
<glyph unicode="&#xcd;" horiz-adv-x="255" d="M224 892l-159 -133l-30 36l159 133zM157 0h-59v700h59v-700z" />
<glyph unicode="&#xce;" horiz-adv-x="255" d="M279 785l-31 -31l-121 124l-122 -124l-30 31l152 153zM157 0h-59v700h59v-700z" />
<glyph unicode="&#xcf;" horiz-adv-x="255" d="M30 865q10 0 18 -4.5t11.5 -11t3.5 -14.5q0 -6 -2 -11.5t-6.5 -10t-10.5 -7t-14 -2.5q-15 0 -24 9t-9 22q0 8 4 14.5t11.5 11t17.5 4.5zM223 865q15 0 24 -9t9 -21q0 -8 -3.5 -15t-11.5 -11.5t-18 -4.5q-15 0 -24 9t-9 22q0 8 4 14.5t11.5 11t17.5 4.5zM157 0h-59v700h59 v-700z" />
<glyph unicode="&#xd0;" horiz-adv-x="751" d="M105 700h223q165 0 258.5 -95.5t93.5 -254.5q0 -160 -93 -255t-259 -95h-223v320h-102v48h102v332zM165 650v-282h191v-48h-191v-270h163q140 0 216.5 80t76.5 220q0 92 -34.5 159.5t-100.5 104t-158 36.5h-163z" />
<glyph unicode="&#xd1;" horiz-adv-x="728" d="M263 815l-34 19q29 63 75 63q26 0 67 -22q42 -23 60 -23q25 0 40 34l33 -19q-23 -55 -67 -55q-26 0 -69 23q-40 22 -58 22q-27 0 -47 -42zM639 0h-72l-419 601v-601h-59v700h72l419 -601v601h59v-700z" />
<glyph unicode="&#xd2;" horiz-adv-x="844" d="M518 795l-30 -36l-160 133l31 36zM422 712q82 0 149 -27.5t111 -75.5t68 -114.5t24 -144.5q0 -105 -40.5 -186.5t-121 -128.5t-190.5 -47q-162 0 -257 101t-95 261t94 261t258 101zM421.5 661q-136.5 0 -214 -85t-77.5 -226t78.5 -226.5t213.5 -85.5q138 0 215.5 85 t77.5 227q0 141 -78.5 226t-215 85z" />
<glyph unicode="&#xd3;" horiz-adv-x="844" d="M520 892l-159 -133l-30 36l159 133zM421.5 712q163.5 0 258 -101t94.5 -261q0 -161 -93.5 -261.5t-258.5 -100.5q-162 0 -257 101t-95 261t94 261t257.5 101zM421.5 661q-136.5 0 -214 -85t-77.5 -226t78.5 -226.5t213.5 -85.5q138 0 215.5 85t77.5 227q0 141 -78.5 226 t-215 85z" />
<glyph unicode="&#xd4;" horiz-adv-x="844" d="M574 785l-30 -31l-122 124l-121 -124l-31 31l152 153zM421.5 712q163.5 0 258 -101t94.5 -261q0 -161 -93.5 -261.5t-258.5 -100.5q-162 0 -257 101t-95 261t94 261t257.5 101zM421.5 661q-136.5 0 -214 -85t-77.5 -226t78.5 -226.5t213.5 -85.5q138 0 215.5 85t77.5 227 q0 141 -78.5 226t-215 85z" />
<glyph unicode="&#xd5;" horiz-adv-x="844" d="M321 815l-34 19q29 63 75 63q26 0 67 -22q42 -23 60 -23q25 0 40 34l33 -19q-23 -55 -67 -55q-26 0 -69 23q-40 22 -58 22q-27 0 -47 -42zM422 712q82 0 149 -27.5t111 -75.5t68 -114.5t24 -144.5q0 -105 -40.5 -186.5t-121 -128.5t-190.5 -47q-162 0 -257 101t-95 261 t94 261t258 101zM421.5 661q-136.5 0 -214 -85t-77.5 -226q0 -92 34.5 -162.5t101 -110t156.5 -39.5q138 0 215.5 85t77.5 227q0 141 -78.5 226t-215 85z" />
<glyph unicode="&#xd6;" horiz-adv-x="844" d="M326 865q15 0 24 -9t9 -21q0 -5 -1.5 -9.5t-4.5 -8.5t-6.5 -7t-9 -4.5t-11.5 -1.5q-15 0 -24 9t-9 21.5t9 21.5t24 9zM519 865q15 0 24 -9t9 -21.5t-9 -21.5t-24 -9t-24 9t-9 21.5t9 21.5t24 9zM421.5 712q163.5 0 258 -101t94.5 -261q0 -161 -93.5 -261.5t-258.5 -100.5 q-162 0 -257 101t-95 261t94 261t257.5 101zM421.5 661q-136.5 0 -214 -85t-77.5 -226t78.5 -226.5t213.5 -85.5q138 0 215.5 85t77.5 227q0 141 -78.5 226t-215 85z" />
<glyph unicode="&#xd7;" horiz-adv-x="409" d="M204 326l126 126l34 -34l-126 -126l126 -125l-34 -34l-126 126l-125 -126l-34 34l126 126l-126 125l34 34z" />
<glyph unicode="&#xd8;" horiz-adv-x="844" d="M626 750l-33 -76q87 -43 134 -128t47 -196q0 -161 -93.5 -261.5t-258.5 -100.5q-65 0 -121 18l-25 -56h-58l33 76q-86 43 -133.5 128t-47.5 196q0 160 94 261t258 101q65 0 122 -18l24 56h58zM272 74l251 573q-47 14 -101 14q-137 0 -214.5 -85t-77.5 -226 q0 -95 37 -166.5t105 -109.5zM572 626l-251 -573q47 -15 101 -15q138 0 215.5 85t77.5 227q0 95 -37 167t-106 109z" />
<glyph unicode="&#xd9;" horiz-adv-x="745" d="M468 795l-31 -36l-159 133l30 36zM656 700v-382q0 -77 -13.5 -135t-44.5 -103.5t-86.5 -69t-134.5 -23.5q-78 0 -133.5 23t-87 68t-45 103.5t-13.5 136.5v382h59v-378q0 -142 49.5 -211.5t170.5 -69.5t170.5 70t49.5 211v378h59z" />
<glyph unicode="&#xda;" horiz-adv-x="745" d="M470 892l-159 -133l-30 36l159 133zM656 700v-382q0 -77 -13.5 -135t-44.5 -103.5t-86.5 -69t-134.5 -23.5q-78 0 -133.5 23t-87 68t-45 103.5t-13.5 136.5v382h59v-378q0 -143 49.5 -212t170.5 -69t170.5 70t49.5 211v378h59z" />
<glyph unicode="&#xdb;" horiz-adv-x="745" d="M524 785l-31 -31l-121 124l-121 -124l-31 31l152 153zM656 700v-382q0 -77 -13.5 -135t-44.5 -103.5t-86.5 -69t-134.5 -23.5q-78 0 -133.5 23t-87 68t-45 103.5t-13.5 136.5v382h59v-378q0 -143 49.5 -212t170.5 -69t170.5 70t49.5 211v378h59z" />
<glyph unicode="&#xdc;" horiz-adv-x="745" d="M276 865q15 0 24 -9t9 -21.5t-9 -21.5t-24 -9t-24 9t-9 21.5t9 21.5t24 9zM469 865q10 0 17.5 -4.5t11.5 -11t4 -14.5q0 -13 -9 -22t-24 -9t-24 9t-9 22q0 8 4 14.5t11.5 11t17.5 4.5zM656 700v-382q0 -77 -13.5 -135t-44.5 -103.5t-86.5 -69t-134.5 -23.5 q-78 0 -133.5 23t-87 68t-45 103.5t-13.5 136.5v382h59v-378q0 -70 11 -120.5t36 -87.5t68 -55t105 -18q121 0 170.5 70t49.5 211v378h59z" />
<glyph unicode="&#xdd;" horiz-adv-x="690" d="M442 892l-159 -133l-30 36l159 133zM375 279v-279h-60v279l-272 421h69l233 -366l234 366h68z" />
<glyph unicode="&#xde;" horiz-adv-x="692" d="M157 584h229q109 0 171.5 -63.5t62.5 -166.5q0 -105 -62 -168t-172 -63h-229v-123h-59v700h59v-116zM157 172h224q85 0 132.5 48.5t47.5 133.5q0 83 -48 132t-132 49h-224v-363z" />
<glyph unicode="&#xdf;" horiz-adv-x="671" d="M88 1v532q1 35 9 62.5t23.5 47t35.5 33.5t46.5 21.5t54.5 11t62 3.5q53 0 92 -8t71.5 -27.5t50 -57t17.5 -91.5q0 -125 -103 -159q81 -14 124 -57.5t43 -128.5q0 -47 -14 -81.5t-37 -55t-59 -33t-73 -16.5t-86 -4h-116v51h117q52 0 87 5.5t64 20.5t43 44t14 73 q0 85 -50.5 117t-150.5 33h-19v50h10q35 1 60.5 8t45.5 22t30 41.5t10 65.5q0 41 -11.5 68.5t-35 42t-53 20.5t-71.5 6q-84 0 -127 -28.5t-44 -102.5v-529h-60z" />
<glyph unicode="&#xe0;" horiz-adv-x="580" d="M388 595l-30 -36l-160 133l31 36zM111 427l-16 37q90 49 186 49q57 0 106.5 -19.5t82.5 -63t33 -102.5v-328h-51l-3 75q-76 -87 -200 -87q-81 0 -138 43t-57 121q0 55 31.5 93.5t78.5 55t104 16.5q101 0 178 -44v56q0 27 -10 50.5t-27 40t-39.5 28.5t-47 17.5t-50.5 5.5 q-83 0 -161 -44zM446 116v117q-70 46 -168 46q-73 0 -121.5 -31.5t-48.5 -92.5q0 -59 44.5 -91.5t110.5 -32.5q115 0 183 85z" />
<glyph unicode="&#xe1;" horiz-adv-x="580" d="M390 692l-159 -133l-30 36l159 133zM111 427l-16 37q90 49 186 49q57 0 106.5 -19.5t82.5 -63t33 -102.5v-328h-51l-3 75q-76 -87 -200 -87q-81 0 -138 43t-57 121q0 55 31.5 93.5t78.5 55t104 16.5q101 0 178 -44v56q-1 66 -53 104t-121 38q-83 0 -161 -44zM446 116v117 q-70 46 -168 46q-73 0 -121.5 -31.5t-48.5 -92.5q0 -59 44.5 -91.5t110.5 -32.5q115 0 183 85z" />
<glyph unicode="&#xe2;" horiz-adv-x="580" d="M444 585l-30 -31l-122 124l-121 -124l-31 31l152 153zM111 427l-16 37q90 49 186 49q42 0 81 -11.5t71 -34t51 -58.5t19 -81v-328h-51l-3 75q-76 -87 -200 -87q-81 0 -138 43t-57 121q0 55 31.5 93.5t78.5 55t104 16.5q101 0 178 -44v56q0 27 -10 50.5t-27 40t-39.5 28.5 t-47 17.5t-50.5 5.5q-83 0 -161 -44zM446 116v117q-70 46 -168 46q-73 0 -121.5 -31.5t-48.5 -92.5q0 -59 44.5 -91.5t110.5 -32.5q115 0 183 85z" />
<glyph unicode="&#xe3;" horiz-adv-x="580" d="M191 615l-34 19q29 63 75 63q26 0 66 -22q43 -23 61 -23q25 0 40 34l33 -19q-23 -55 -67 -55q-26 0 -69 23q-40 22 -58 22q-27 0 -47 -42zM111 427l-16 37q90 49 186 49q57 0 106.5 -19.5t82.5 -63t33 -102.5v-328h-51l-3 75q-76 -87 -200 -87q-81 0 -138 43t-57 121 q0 55 31.5 93.5t78.5 55t104 16.5q101 0 178 -44v56q-1 66 -53 104t-121 38q-83 0 -161 -44zM446 116v117q-70 46 -168 46q-73 0 -121.5 -31.5t-48.5 -92.5q0 -59 44.5 -91.5t110.5 -32.5q115 0 183 85z" />
<glyph unicode="&#xe4;" horiz-adv-x="580" d="M196 665q15 0 24 -9t9 -21q0 -8 -4 -15t-11.5 -11.5t-17.5 -4.5q-15 0 -24 9t-9 22q0 8 4 14.5t11.5 11t17.5 4.5zM389 665q15 0 24 -9t9 -21q0 -5 -1.5 -9.5t-4 -8.5t-6.5 -7t-9.5 -4.5t-11.5 -1.5q-15 0 -24 9t-9 22q0 8 4 14.5t11.5 11t17.5 4.5zM111 427l-16 37 q90 49 186 49q42 0 81 -11.5t71 -34t51 -58.5t19 -81v-328h-51l-3 75q-76 -87 -200 -87q-81 0 -138 43t-57 121q0 55 31.5 93.5t78.5 55t104 16.5q101 0 178 -44v56q0 23 -7 43t-19.5 35.5t-29 27.5t-36 20t-40.5 12t-42 4q-83 0 -161 -44zM446 116v117q-70 46 -168 46 q-73 0 -121.5 -31.5t-48.5 -92.5q0 -59 44.5 -91.5t110.5 -32.5q115 0 183 85z" />
<glyph unicode="&#xe5;" horiz-adv-x="580" d="M293 761q46 0 78 -31.5t32 -75t-32 -75t-78 -31.5t-78.5 31.5t-32.5 75t32.5 75t78.5 31.5zM293 729q-19 0 -36 -9.5t-28 -26.5t-11 -38t11 -38.5t28 -27t36 -9.5q29 0 51.5 21.5t22.5 53t-22.5 53t-51.5 21.5zM111 427l-16 37q90 49 186 49q42 0 81 -11.5t71 -34 t51 -58.5t19 -81v-328h-51l-3 75q-76 -87 -200 -87q-81 0 -138 43t-57 121q0 55 31.5 93.5t78.5 55t104 16.5q101 0 178 -44v56q-1 66 -53 104t-121 38q-83 0 -161 -44zM446 116v117q-70 46 -168 46q-73 0 -121.5 -31.5t-48.5 -92.5q0 -59 44.5 -91.5t110.5 -32.5 q115 0 183 85z" />
<glyph unicode="&#xe6;" horiz-adv-x="1010" d="M111 427l-16 37q90 49 186 49q78 0 140 -39t73 -110q25 70 83.5 110t143.5 40q115 0 177 -58.5t62 -170.5q0 -34 -6 -66h-428q8 -85 61 -135t140 -51q92 -2 166 39l25 -31q-80 -53 -191 -53q-83 0 -140.5 38t-83.5 105v-131h-51l-3 75q-76 -87 -200 -87q-81 0 -138 43 t-57 121q0 55 31.5 93.5t78.5 55t104 16.5q101 0 178 -44v56q-1 45 -27 78t-64.5 48.5t-82.5 15.5q-83 0 -161 -44zM525 255h379q3 20 3 40q0 175 -185 175q-92 0 -143.5 -56.5t-53.5 -147.5v-11zM446 116v117q-70 46 -168 46q-73 0 -121.5 -31.5t-48.5 -92.5 q0 -40 22 -68.5t56.5 -42t76.5 -13.5q115 0 183 85z" />
<glyph unicode="&#xe7;" horiz-adv-x="517" d="M200 -77l44 73q-57 15 -99 51t-64 88t-22 115q0 114 70 188.5t192 74.5q91 0 142 -37l-32 -36q-35 27 -107 27q-95 0 -151.5 -60.5t-56.5 -156.5q0 -98 57 -157.5t151 -59.5q69 0 112 30l31 -37q-26 -17 -63.5 -27t-73.5 -12q-28 0 -48 4l-33 -52q13 2 19 2 q44 -2 70.5 -24.5t26.5 -62.5q0 -44 -32 -69t-81 -25q-67 0 -94 41l24 22q20 -28 67 -28q33 0 53 16t20 45q0 28 -20.5 44.5t-54.5 16.5q-18 0 -30 -4z" />
<glyph unicode="&#xe8;" horiz-adv-x="601" d="M394 595l-30 -36l-159 133l30 36zM484 72l25 -31q-80 -53 -191 -53q-121 0 -190 73t-69 191q0 115 66.5 188.5t186.5 73.5q115 0 177 -58.5t62 -170.5q0 -34 -6 -66h-429q9 -85 62 -135t140 -51q91 -2 166 39zM116 255h379q2 20 2 40q0 175 -184 175q-92 0 -143.5 -56.5 t-53.5 -147.5v-11z" />
<glyph unicode="&#xe9;" horiz-adv-x="601" d="M397 692l-160 -133l-30 36l160 133zM484 72l25 -31q-80 -53 -191 -53q-121 0 -190 73t-69 190q0 116 66.5 189.5t186.5 73.5q115 0 177 -58.5t62 -170.5q0 -34 -6 -66h-429q9 -85 62 -135t140 -51q91 -2 166 39zM116 255h379q2 20 2 40q0 175 -184 175 q-92 0 -143.5 -56.5t-53.5 -147.5v-11z" />
<glyph unicode="&#xea;" horiz-adv-x="601" d="M451 585l-31 -31l-121 124l-121 -124l-31 31l152 153zM484 72l25 -31q-80 -53 -191 -53q-121 0 -190 73t-69 190q0 116 66.5 189.5t186.5 73.5q115 0 177 -58.5t62 -170.5q0 -34 -6 -66h-429q9 -85 62 -135t140 -51q91 -2 166 39zM116 255h379q2 20 2 40q0 175 -184 175 q-92 0 -143.5 -56.5t-53.5 -147.5v-11z" />
<glyph unicode="&#xeb;" horiz-adv-x="601" d="M202.5 665q10.5 0 18 -4.5t11.5 -11t4 -14.5q0 -13 -9 -22t-24 -9t-24 9t-9 22q0 8 3.5 14.5t11 11t18 4.5zM396 665q10 0 17.5 -4.5t11.5 -11t4 -14.5q0 -13 -9 -22t-24 -9t-24 9t-9 21.5t9 21.5t24 9zM484 72l25 -31q-80 -53 -191 -53q-121 0 -190 73t-69 191 q0 115 66.5 188.5t186.5 73.5q115 0 177 -58.5t62 -170.5q0 -34 -6 -66h-429q9 -85 62 -135t140 -51q91 -2 166 39zM116 255h379q2 20 2 40q0 175 -184 175q-92 0 -143.5 -56.5t-53.5 -147.5v-11z" />
<glyph unicode="&#xec;" horiz-adv-x="229" d="M214 595l-30 -36l-159 133l30 36zM148 0h-58v500h58v-500z" />
<glyph unicode="&#xed;" horiz-adv-x="229" d="M216 692l-159 -133l-30 36l159 133zM148 0h-58v500h58v-500z" />
<glyph unicode="&#xee;" horiz-adv-x="229" d="M271 585l-31 -31l-121 124l-121 -124l-31 31l152 153zM148 0h-58v500h58v-500z" />
<glyph unicode="&#xef;" horiz-adv-x="229" d="M22 665q15 0 24 -9t9 -21.5t-9 -21.5t-24 -9t-23.5 9t-8.5 21.5t8.5 21.5t23.5 9zM216 665q15 0 24 -9t9 -21q0 -8 -4 -15t-11.5 -11.5t-17.5 -4.5q-15 0 -24 9t-9 21.5t9 21.5t24 9zM148 0h-58v500h58v-500z" />
<glyph unicode="&#xf0;" horiz-adv-x="600" d="M149 665l-25 38q43 31 87 44.5t102 13.5q141 0 204 -80l72 43l24 -38l-73 -42q44 -82 44 -272q0 -70 -6 -122.5t-23 -103t-46.5 -82.5t-78.5 -51.5t-117 -19.5q-62 0 -107.5 10.5t-84 36.5t-58 74.5t-19.5 118.5t19 118t56 73.5t81.5 36t104.5 10.5q86 0 138 -22.5 t83 -90.5l1 47q-1 149 -36 210l-111 -64l-23 37l109 64q-47 61 -153 61q-98 0 -164 -48zM313 424q-29 0 -52.5 -2.5t-46 -8.5t-39.5 -15.5t-31.5 -24.5t-24 -34.5t-14.5 -46.5t-5 -60q0 -57 14.5 -95.5t44 -59t66 -28.5t88.5 -8q110 0 157 60t55 178q-12 46 -31 75.5 t-47 44.5t-58 20t-76 5z" />
<glyph unicode="&#xf1;" horiz-adv-x="621" d="M214 615l-34 19q29 63 75 63q26 0 66 -22q43 -23 61 -23q25 0 40 34l33 -19q-23 -55 -67 -55q-26 0 -69 23q-40 22 -58 22q-27 0 -47 -42zM137 500l2 -77q37 32 63.5 50t59.5 29.5t70 11.5q53 0 100.5 -20t79.5 -63.5t32 -102.5v-328h-57v318q0 70 -50 109.5t-118 39.5 q-47 0 -84 -19.5t-92 -69.5v-378h-58v500h52z" />
<glyph unicode="&#xf2;" horiz-adv-x="641" d="M416 595l-30 -36l-159 133l30 36zM321 513q122 0 191.5 -72.5t69.5 -190.5t-68.5 -190.5t-192.5 -72.5q-123 0 -192.5 73.5t-69.5 189.5t69.5 189.5t192.5 73.5zM321 467q-95 0 -150 -59.5t-55 -157.5t55 -157.5t150 -59.5q96 0 150 58.5t54 158.5t-54.5 158.5 t-149.5 58.5z" />
<glyph unicode="&#xf3;" horiz-adv-x="641" d="M418 692l-159 -133l-30 36l159 133zM321 513q122 0 191.5 -72.5t69.5 -190.5t-68.5 -190.5t-192.5 -72.5q-123 0 -192.5 73.5t-69.5 189.5t69.5 189.5t192.5 73.5zM320.5 467q-94.5 0 -149.5 -59.5t-55 -157.5t55 -157.5t150 -59.5q96 0 150 58.5t54 158.5t-55 158.5 t-149.5 58.5z" />
<glyph unicode="&#xf4;" horiz-adv-x="641" d="M473 585l-31 -31l-121 124l-122 -124l-30 31l152 153zM321 513q81 0 140.5 -33.5t90 -93t30.5 -136.5q0 -118 -68.5 -190.5t-192.5 -72.5q-123 0 -192.5 73.5t-69.5 189.5t69.5 189.5t192.5 73.5zM321 467q-95 0 -150 -59.5t-55 -157.5t55 -157.5t150 -59.5 q96 0 150 58.5t54 158.5t-54.5 158.5t-149.5 58.5z" />
<glyph unicode="&#xf5;" horiz-adv-x="641" d="M219 615l-33 19q28 63 75 63q25 0 66 -22q42 -23 61 -23q24 0 39 34l34 -19q-23 -55 -68 -55q-26 0 -69 23q-40 22 -58 22q-27 0 -47 -42zM321 513q122 0 191.5 -72.5t69.5 -190.5t-68.5 -190.5t-192.5 -72.5q-123 0 -192.5 73.5t-69.5 189.5t69.5 189.5t192.5 73.5z M321 467q-95 0 -150 -59.5t-55 -157.5t55 -157.5t150 -59.5q96 0 150 58.5t54 158.5t-54.5 158.5t-149.5 58.5z" />
<glyph unicode="&#xf6;" horiz-adv-x="641" d="M224 665q15 0 24 -9t9 -21.5t-9 -21.5t-24 -9t-24 9t-9 22q0 8 4 14.5t11.5 11t17.5 4.5zM417 665q10 0 18 -4.5t11.5 -11t3.5 -14.5q0 -13 -9 -22t-24 -9t-24 9t-9 22q0 8 4 14.5t11.5 11t17.5 4.5zM321 513q122 0 191.5 -72.5t69.5 -190.5t-68.5 -190.5t-192.5 -72.5 q-123 0 -192.5 73.5t-69.5 189.5t69.5 189.5t192.5 73.5zM321 467q-95 0 -150 -59.5t-55 -157.5t55 -157.5t150 -59.5q96 0 150 58.5t54 158.5t-54.5 158.5t-149.5 58.5z" />
<glyph unicode="&#xf7;" horiz-adv-x="493" d="M247 531q15 0 23.5 -8.5t8.5 -21t-8.5 -21.5t-24 -9t-24 9t-8.5 21q0 8 3.5 15t11 11t18.5 4zM448 315h-403v48h403v-48zM246.5 207q15.5 0 24 -9t8.5 -21.5t-8.5 -21t-24 -8.5t-24 8.5t-8.5 21t8.5 21.5t24 9z" />
<glyph unicode="&#xf8;" horiz-adv-x="641" d="M477 550l-28 -64q64 -31 98.5 -92.5t34.5 -143.5q0 -118 -68.5 -190.5t-192.5 -72.5q-46 0 -85 11l-21 -48h-51l28 65q-64 31 -98.5 93t-34.5 142q0 116 69.5 189.5t192.5 73.5q45 0 85 -11l21 48h50zM212 60l174 398q-30 9 -65 9q-95 0 -150 -59.5t-55 -157.5 q0 -65 25 -114t71 -76zM429 440l-174 -398q31 -9 66 -9q96 0 150 58.5t54 158.5q0 66 -25 115t-71 75z" />
<glyph unicode="&#xf9;" horiz-adv-x="612" d="M403 595l-30 -36l-159 133l30 36zM536 0h-52l-2 77q-37 -32 -63.5 -50t-59.5 -29.5t-70 -11.5q-53 0 -100.5 19.5t-80 63.5t-32.5 103v328h58v-318q0 -70 50 -109.5t118 -39.5q47 0 84 19.5t92 69.5v378h58v-500z" />
<glyph unicode="&#xfa;" horiz-adv-x="612" d="M405 692l-159 -133l-30 36l159 133zM536 0h-52l-2 77q-37 -32 -63.5 -50t-59.5 -29.5t-70 -11.5q-53 0 -100.5 19.5t-80 63.5t-32.5 103v328h58v-318q0 -70 50 -109.5t118 -39.5q47 0 84 19.5t92 69.5v378h58v-500z" />
<glyph unicode="&#xfb;" horiz-adv-x="612" d="M460 585l-31 -31l-121 124l-121 -124l-31 31l152 153zM536 0h-52l-2 77q-56 -49 -97.5 -70t-95.5 -21q-53 0 -100.5 19.5t-80 63.5t-32.5 103v328h58v-318q0 -70 50 -109.5t118 -39.5q47 0 84 19.5t92 69.5v378h58v-500z" />
<glyph unicode="&#xfc;" horiz-adv-x="612" d="M211 665q16 0 24.5 -9t8.5 -21q0 -8 -3.5 -15t-11.5 -11.5t-18 -4.5q-15 0 -24 9t-9 22q0 8 4 14.5t11.5 11t17.5 4.5zM405 665q10 0 17.5 -4.5t11.5 -11t4 -14.5q0 -13 -9 -22t-24 -9t-24 9t-9 21.5t9 21.5t24 9zM536 0h-52l-2 77q-56 -49 -97.5 -70t-95.5 -21 q-53 0 -100.5 19.5t-80 63.5t-32.5 103v328h58v-318q0 -70 50 -109.5t118 -39.5q47 0 84 19.5t92 69.5v378h58v-500z" />
<glyph unicode="&#xfd;" horiz-adv-x="546" d="M369 692l-159 -133l-30 36l159 133zM521 500l-242 -598q-31 -77 -94 -115q-59 -35 -145 -35v44q73 0 123 32q47 32 72 92l31 80h-11l-205 500h59l178 -443l175 443h59z" />
<glyph unicode="&#xfe;" horiz-adv-x="627" d="M151 700v-271q68 83 181 83q112 0 174 -70.5t62 -192.5q0 -124 -57.5 -193t-168.5 -69q-48 0 -89 17.5t-102 68.5v-311h-57v938h57zM151 375v-251q60 -55 97 -73t81 -18q182 0 182 216q0 99 -50 158t-144 59q-107 0 -166 -91z" />
<glyph unicode="&#xff;" horiz-adv-x="546" d="M175 665q15 0 24 -9t9 -21.5t-9 -21.5t-24 -9t-24 9t-9 21.5t9 21.5t24 9zM368 665q15 0 24 -9t9 -21.5t-9 -21.5t-24 -9t-24 9t-9 21.5t9 21.5t24 9zM521 500l-242 -598q-31 -77 -94 -115q-59 -35 -145 -35v44q73 0 123 32q47 32 72 92l31 80h-11l-205 500h59l178 -443 l175 443h59z" />
<glyph unicode="&#x152;" horiz-adv-x="1208" d="M715 0v182q-32 -90 -107.5 -142t-185.5 -52q-162 0 -257 101t-95 261t94 261t258 101q109 0 185 -52.5t108 -142.5v183h437v-50h-378v-264h346v-50h-346v-286h378v-50h-437zM422 661q-91 0 -157.5 -39t-100.5 -109t-34 -163q0 -141 78.5 -226t213.5 -85q138 0 215.5 84.5 t77.5 226.5q0 141 -78.5 226t-214.5 85z" />
<glyph unicode="&#x153;" horiz-adv-x="1067" d="M950 72l25 -31q-80 -53 -191 -53q-88 0 -148 43t-82 118q-23 -76 -83 -119t-150 -43q-123 0 -192.5 73.5t-69.5 189.5t69.5 189.5t192.5 73.5q88 0 148.5 -42.5t83.5 -117.5q22 74 79.5 117.5t145.5 43.5q115 0 177 -58.5t62 -170.5q0 -34 -6 -66h-428q8 -85 61 -135 t140 -51q92 -2 166 39zM582 255h379q3 20 3 40q0 175 -185 175q-92 0 -143.5 -56.5t-53.5 -147.5v-11zM321 467q-95 0 -150 -59.5t-55 -157.5t55 -157.5t150 -59.5q96 0 150 58.5t54 158.5t-54.5 158.5t-149.5 58.5z" />
<glyph unicode="&#x178;" horiz-adv-x="690" d="M248 865q10 0 17.5 -4.5t11.5 -11t4 -14.5q0 -13 -9 -22t-24 -9t-24 9t-9 22q0 8 4 14.5t11.5 11t17.5 4.5zM441 865q10 0 18 -4.5t11.5 -11t3.5 -14.5q0 -13 -9 -22t-24 -9t-24 9t-9 22q0 8 4 14.5t11.5 11t17.5 4.5zM375 279v-279h-60v279l-272 421h69l233 -366 l234 366h68z" />
<glyph unicode="&#x2c6;" horiz-adv-x="394" d="M349 585l-31 -31l-121 124l-121 -124l-31 31l152 153z" />
<glyph unicode="&#x2dc;" horiz-adv-x="365" d="M79 615l-34 19q29 63 75 63q26 0 66 -22q42 -23 61 -23q24 0 39 34l34 -19q-23 -55 -67 -55q-27 0 -69 23q-40 22 -58 22q-27 0 -47 -42z" />
<glyph unicode="&#x2000;" horiz-adv-x="480" />
<glyph unicode="&#x2001;" horiz-adv-x="961" />
<glyph unicode="&#x2002;" horiz-adv-x="480" />
<glyph unicode="&#x2003;" horiz-adv-x="961" />
<glyph unicode="&#x2004;" horiz-adv-x="320" />
<glyph unicode="&#x2005;" horiz-adv-x="240" />
<glyph unicode="&#x2006;" horiz-adv-x="160" />
<glyph unicode="&#x2007;" horiz-adv-x="160" />
<glyph unicode="&#x2008;" horiz-adv-x="120" />
<glyph unicode="&#x2009;" horiz-adv-x="192" />
<glyph unicode="&#x200a;" horiz-adv-x="53" />
<glyph unicode="&#x2010;" horiz-adv-x="461" d="M415 322h-370v48h370v-48z" />
<glyph unicode="&#x2011;" horiz-adv-x="461" d="M415 322h-370v48h370v-48z" />
<glyph unicode="&#x2012;" horiz-adv-x="461" d="M415 322h-370v48h370v-48z" />
<glyph unicode="&#x2013;" horiz-adv-x="529" d="M484 322h-439v48h439v-48z" />
<glyph unicode="&#x2014;" horiz-adv-x="658" d="M613 322h-568v48h568v-48z" />
<glyph unicode="&#x2018;" horiz-adv-x="162" d="M100 743h-4q-8 0 -12.5 -3t-6.5 -9.5t-2 -19.5v-6q3 1 9 1q15 0 24 -9t9 -21.5t-9 -21t-24 -8.5q-20 0 -29 14q-10 14 -10 45t11 47t38 16h10z" />
<glyph unicode="&#x2019;" horiz-adv-x="162" d="M87 703v6q-3 -1 -9 -1q-15 0 -24 9t-9 21.5t9 21t24 8.5q19 0 28 -13q11 -14 11 -46q0 -31 -11 -47t-38 -16h-10l4 25h4q12 0 16.5 7t4.5 25z" />
<glyph unicode="&#x201a;" horiz-adv-x="162" d="M87 -11v6q-3 -1 -9 -1q-15 0 -24 9t-9 21.5t9 21t24 8.5q19 0 28 -13q11 -15 11 -46t-11 -47.5t-38 -16.5h-10l4 26h4q12 0 16.5 7t4.5 25z" />
<glyph unicode="&#x201c;" horiz-adv-x="297" d="M235 743h-4q-12 0 -16.5 -7t-4.5 -25v-6q3 1 9 1q15 0 24 -9t9 -21.5t-9 -21t-24 -8.5q-19 0 -28 13q-11 14 -11 46q0 20 4 33t15 21.5t30 8.5h10zM100 743h-4q-12 0 -16.5 -6.5t-4.5 -24.5v-7q3 1 9 1q15 0 24 -9t9 -21.5t-9 -21t-24 -8.5q-20 0 -29 14q-10 14 -10 45 t11 47t38 16h10z" />
<glyph unicode="&#x201d;" horiz-adv-x="297" d="M87 703v6q-3 -1 -9 -1q-15 0 -24 9t-9 21q0 8 4 15t11.5 11t17.5 4q19 0 28 -13q11 -15 11 -46t-11 -47t-38 -16h-10l4 25h4q12 0 16.5 7t4.5 25zM222 704v5q-3 -1 -9 -1q-15 0 -24 9t-9 21q0 6 2 11.5t6.5 9.5t10.5 6.5t14 2.5q20 0 29 -14q10 -15 10 -45 q0 -31 -11 -47.5t-38 -16.5h-10l4 26h4q13 0 17 7t4 26z" />
<glyph unicode="&#x201e;" horiz-adv-x="297" d="M87 -11v6q-3 -1 -9 -1q-15 0 -24 9t-9 21q0 8 4 15t11.5 11t17.5 4q19 0 28 -13q11 -15 11 -46t-11 -47.5t-38 -16.5h-10l4 26h4q12 0 16.5 7t4.5 25zM222 -11v6q-3 -1 -9 -1q-15 0 -24 9t-9 21.5t9 21t24 8.5q19 0 28 -13q11 -15 11 -46t-11 -47.5t-38 -16.5h-10l4 26h4 q12 0 16.5 7t4.5 25z" />
<glyph unicode="&#x2022;" horiz-adv-x="288" d="M144.5 393q42.5 0 70.5 -28.5t28 -68t-28 -68t-70.5 -28.5t-71 28.5t-28.5 68t28.5 68t71 28.5z" />
<glyph unicode="&#x2026;" horiz-adv-x="531" d="M78 56q15 0 24 -9t9 -21q0 -8 -4 -15t-11.5 -11.5t-17.5 -4.5q-15 0 -24 9t-9 22q0 8 4 15t11.5 11t17.5 4zM266 56q15 0 24 -9t9 -21.5t-9 -21.5t-24 -9t-24 9t-9 21.5t9 21.5t24 9zM453 56q15 0 24 -9t9 -21.5t-9 -21.5t-24 -9q-7 0 -13.5 2.5t-10.5 7t-6.5 10 t-2.5 11.5q0 12 9 21t24 9z" />
<glyph unicode="&#x202f;" horiz-adv-x="192" />
<glyph unicode="&#x2039;" horiz-adv-x="344" d="M299 497l-187 -204l187 -204l-38 -30l-216 234l216 234z" />
<glyph unicode="&#x203a;" horiz-adv-x="344" d="M299 293l-217 -234l-37 30l187 204l-187 204l37 30z" />
<glyph unicode="&#x205f;" horiz-adv-x="240" />
<glyph unicode="&#x20ac;" horiz-adv-x="650" d="M45 425h63q6 67 22.5 116.5t49.5 89.5t88 60.5t131 20.5q134 0 206 -65l-35 -36q-63 52 -171 52q-117 0 -168.5 -60.5t-59.5 -177.5h337v-44h-344v-31q0 -30 2 -56h303v-45h-296q12 -103 64 -157t162 -54q108 0 171 52l35 -36q-72 -66 -206 -66q-73 0 -126 18.5t-86 54.5 t-51 82t-26 106h-65v45h60q-2 30 -2 56v31h-58v44z" />
<glyph unicode="&#x2122;" horiz-adv-x="878" d="M375 662h-143v-355h-44v355h-143v38h330v-38zM833 307h-45v296l-132 -296h-40l-132 296v-296h-45v393h51l146 -335l146 335h51v-393z" />
<glyph unicode="&#x25fc;" horiz-adv-x="500" d="M0 500h500v-500h-500v500z" />
<glyph unicode="&#xfb03;" horiz-adv-x="1022" d="M781 748v-44q-95 0 -150 -49q-58 -50 -58 -155h362v-500h-57v456h-305v-456h-57v456h-333v-456h-57v456h-92v44h92q0 129 78 192q71 59 186 56v-44q-94 0 -150 -49q-57 -50 -57 -155h333q0 129 79 192q71 59 186 56z" />
<glyph unicode="&#xfb04;" horiz-adv-x="1123" d="M390 748v-44q-94 0 -150 -49q-57 -50 -57 -155h333q0 129 79 192q70 59 182 56h155v-538q0 -86 38 -129q38 -42 115 -42v-44q-101 -3 -155 50q-55 55 -55 165v494h-94q-95 0 -150 -49q-58 -50 -58 -155h166v-44h-166v-456h-57v456h-333v-456h-57v456h-92v44h92 q0 129 78 192q71 59 186 56z" />
</font>
</defs>
</svg>
